<svg width="500" height="500" viewBox="0 0 500 500" fill="none" xmlns="http://www.w3.org/2000/svg">
<path fill-rule="evenodd" clip-rule="evenodd" d="M407.293 277.077L390.406 292.405L329.761 166.559L208.149 285.554L204.695 278.388L76.0827 404.234H452.877L407.293 277.077Z" fill="#2F3E46"/>
<path fill-rule="evenodd" clip-rule="evenodd" d="M292.969 207.391L288.292 207.07L289.679 211.928C289.679 211.928 292.752 207.09 292.969 207.39V207.391ZM242.188 261.862L237.451 261.405L238.839 266.263L242.188 261.862Z" fill="white"/>
<path d="M275.751 400.721C275.693 400.722 275.636 400.701 275.593 400.662C275.55 400.622 275.524 400.568 275.52 400.51C275.516 400.452 275.534 400.395 275.571 400.35C275.608 400.305 275.66 400.275 275.718 400.268C276.063 400.219 310.198 395.05 317.663 373.084C318.294 371.261 318.786 369.393 319.135 367.495C311.318 365.003 304.963 356.5 304.123 352.992C303.914 352.116 304.013 351.515 304.418 351.204C306.102 349.911 311.336 349.954 315.123 352.665C318.112 354.807 320.986 359.008 319.65 367.178C320.112 367.312 320.579 367.424 321.05 367.513C326.289 368.495 330.866 366.225 334.639 360.765C339.755 353.365 342.415 346.52 343.425 340.977C338.605 337.565 336.853 332.388 337.184 329.598C337.183 329.068 337.342 328.55 337.639 328.11C337.936 327.671 338.357 327.331 338.849 327.133C339.533 326.923 340.268 326.947 340.936 327.202C341.605 327.457 342.169 327.927 342.54 328.539C344.143 330.716 344.885 335.055 343.906 340.755C344.169 340.937 344.439 341.112 344.718 341.278C348.97 343.823 358.408 346.469 373.847 335.66C373.897 335.625 373.958 335.612 374.017 335.622C374.077 335.632 374.13 335.666 374.165 335.715C374.199 335.765 374.213 335.826 374.202 335.886C374.192 335.945 374.158 335.998 374.109 336.033C358.458 346.99 348.832 344.268 344.485 341.669C344.259 341.534 344.037 341.393 343.817 341.247C342.775 346.83 340.1 353.664 335.014 361.025C331.128 366.644 326.4 368.975 320.966 367.959C320.498 367.871 320.033 367.761 319.573 367.628C319.22 369.53 318.725 371.402 318.092 373.229C310.537 395.46 276.13 400.668 275.784 400.718C275.773 400.72 275.762 400.72 275.751 400.72V400.721ZM307.922 350.823C306.797 350.748 305.675 351.005 304.695 351.564C304.452 351.75 304.406 352.22 304.565 352.885C305.385 356.305 311.579 364.588 319.212 367.045C320.485 359.141 317.73 355.093 314.857 353.035C312.826 351.605 310.406 350.833 307.922 350.823ZM339.821 327.433C339.537 327.435 339.255 327.48 338.985 327.566C338.579 327.742 338.234 328.034 337.994 328.405C337.754 328.776 337.629 329.21 337.635 329.652C337.275 332.685 339.414 337.449 343.512 340.475C344.418 335.025 343.707 330.891 342.175 328.809C341.923 328.406 341.578 328.07 341.167 327.83C340.757 327.59 340.295 327.454 339.82 327.433H339.821ZM210.852 373.955C210.746 373.955 210.643 373.955 210.536 373.953C194.96 373.698 189.722 354.557 189.671 354.364C189.656 354.306 189.665 354.244 189.695 354.192C189.725 354.14 189.775 354.103 189.833 354.087C189.861 354.079 189.892 354.077 189.921 354.081C189.951 354.085 189.979 354.095 190.005 354.11C190.031 354.125 190.054 354.144 190.072 354.168C190.09 354.192 190.103 354.219 190.11 354.248C190.161 354.439 195.314 373.25 210.544 373.498C217.6 373.636 219.705 369.695 220.207 366.3C219.333 366.296 218.47 366.101 217.68 365.726C216.89 365.352 216.192 364.809 215.635 364.135C213.614 361.49 214.434 357.077 215.775 355.037C216.26 354.299 216.762 353.971 217.218 354.086C218.689 354.453 221.282 360.638 220.719 365.873C222.937 365.85 225.135 365.455 227.222 364.704C232.829 362.867 236.288 360.115 237.503 356.526C239.204 351.498 235.83 346.497 235.795 346.447C235.778 346.423 235.765 346.395 235.758 346.365C235.751 346.336 235.75 346.305 235.755 346.275C235.761 346.245 235.772 346.217 235.788 346.191C235.804 346.166 235.826 346.144 235.851 346.126C235.876 346.109 235.904 346.097 235.934 346.091C235.963 346.085 235.994 346.085 236.024 346.091C236.053 346.097 236.082 346.109 236.107 346.126C236.132 346.143 236.153 346.165 236.17 346.19C236.206 346.242 239.706 351.423 237.934 356.668C236.673 360.403 233.115 363.252 227.365 365.135C225.215 365.91 222.948 366.312 220.663 366.324C220.154 369.857 218.017 373.955 210.852 373.955ZM217.043 354.519C216.805 354.519 216.472 354.805 216.155 355.288C215.041 356.982 214.036 361.294 215.997 363.859C216.52 364.482 217.173 364.984 217.91 365.328C218.647 365.672 219.451 365.851 220.265 365.852C220.837 360.656 218.28 354.819 217.108 354.526C217.087 354.521 217.065 354.519 217.043 354.519ZM326.645 304.535C326.593 304.535 326.543 304.517 326.503 304.485C326.462 304.453 326.434 304.408 326.423 304.358C325.56 300.414 326.12 296.291 328.002 292.719C323.765 289.842 320.035 284.512 319.405 276.366C318.775 268.255 321.146 263.048 324.345 260.151C323.591 257.42 323.427 253.439 324.641 247.642C329.861 222.721 359.065 227.624 359.362 227.677C359.42 227.689 359.471 227.723 359.504 227.772C359.537 227.822 359.55 227.882 359.539 227.94C359.529 227.998 359.496 228.05 359.448 228.084C359.4 228.119 359.34 228.133 359.282 228.125C354.228 227.395 349.085 227.571 344.094 228.646C333.632 231.046 327.236 237.469 325.087 247.735C323.917 253.322 324.036 257.172 324.724 259.823C326.082 258.675 327.695 257.87 329.429 257.475C333.074 256.681 336.41 258.003 337.376 260.621C337.619 261.37 337.613 262.178 337.361 262.924C337.109 263.671 336.624 264.316 335.977 264.765C334.852 265.661 333.484 266.199 332.049 266.308C330.615 266.417 329.181 266.093 327.934 265.377C326.239 264.278 325.012 262.589 324.49 260.637C321.466 263.48 319.252 268.523 319.857 276.331C320.475 284.29 324.096 289.501 328.21 292.315C329.541 289.812 331.374 287.61 333.593 285.845C336.495 283.57 339.434 282.734 341.264 283.663C342.215 284.145 343.329 285.337 343.235 288.274C343.097 292.528 340.333 295.23 336.02 295.328C333.298 295.304 330.644 294.484 328.382 292.97C326.568 296.437 326.031 300.432 326.865 304.255C326.879 304.314 326.869 304.376 326.837 304.427C326.805 304.478 326.754 304.515 326.695 304.528C326.679 304.532 326.662 304.534 326.645 304.535ZM328.59 292.568C330.783 294.048 333.363 294.85 336.009 294.874C340.057 294.783 342.652 292.247 342.781 288.26C342.85 286.124 342.254 284.675 341.057 284.069C339.385 283.221 336.635 284.039 333.874 286.204C331.692 287.938 329.893 290.104 328.589 292.567L328.59 292.568ZM324.858 260.305C325.328 262.229 326.511 263.903 328.168 264.987C329.335 265.657 330.675 265.96 332.016 265.858C333.357 265.756 334.637 265.253 335.688 264.415C336.265 264.027 336.7 263.463 336.927 262.807C337.155 262.151 337.163 261.439 336.95 260.778C336.063 258.374 332.943 257.171 329.526 257.919C327.796 258.313 326.191 259.134 324.858 260.305Z" fill="white"/>
<path fill-rule="evenodd" clip-rule="evenodd" d="M303.143 192.604L317.293 188.457L322.553 203.506L332.488 190.651L344.786 197.739L329.761 166.559L303.143 192.604Z" fill="white"/>
<path d="M394.496 259.962C394.464 259.962 394.432 259.955 394.403 259.942C394.348 259.917 394.305 259.871 394.284 259.815C394.263 259.758 394.265 259.696 394.29 259.641C394.458 259.268 398.38 250.745 403.702 250.745C403.856 250.745 404.011 250.752 404.167 250.765C404.79 250.721 405.414 250.827 405.987 251.075C406.56 251.324 407.064 251.707 407.457 252.192C407.85 252.677 408.119 253.25 408.243 253.862C408.367 254.474 408.341 255.107 408.168 255.706C410.723 253.165 420.688 243.826 428.298 244.109C430.125 244.182 431.39 244.833 432.06 246.044C433.742 249.085 431.175 254.8 429.985 257.132C432.065 255.464 437.23 251.584 440.169 251.748C440.482 251.74 440.792 251.817 441.066 251.969C441.339 252.122 441.567 252.345 441.725 252.615C442.706 254.422 440.449 258.428 440.353 258.598C440.338 258.624 440.318 258.647 440.295 258.665C440.271 258.684 440.244 258.697 440.215 258.705C440.186 258.713 440.156 258.715 440.126 258.711C440.097 258.708 440.068 258.698 440.042 258.683C440.016 258.668 439.993 258.649 439.975 258.625C439.957 258.601 439.943 258.574 439.935 258.546C439.928 258.517 439.925 258.487 439.929 258.457C439.933 258.427 439.942 258.399 439.957 258.373C439.981 258.334 442.187 254.417 441.326 252.833C441.204 252.631 441.03 252.465 440.821 252.354C440.612 252.243 440.378 252.191 440.142 252.203C436.683 251.975 429.463 258.149 429.389 258.211C429.348 258.245 429.297 258.264 429.243 258.265C429.19 258.265 429.138 258.246 429.097 258.212C429.056 258.178 429.028 258.131 429.019 258.079C429.009 258.026 429.018 257.972 429.045 257.925C429.09 257.845 433.639 249.84 431.663 246.264C431.075 245.201 429.935 244.629 428.281 244.564C428.167 244.559 428.053 244.557 427.939 244.556C419.543 244.556 408.012 256.509 407.894 256.631C407.857 256.668 407.809 256.692 407.758 256.698C407.706 256.704 407.654 256.692 407.61 256.665C407.566 256.637 407.533 256.595 407.516 256.546C407.499 256.497 407.499 256.443 407.517 256.395C407.729 255.816 407.823 255.201 407.792 254.586C407.762 253.971 407.609 253.368 407.342 252.813C406.968 252.313 406.482 251.909 405.923 251.632C405.364 251.355 404.748 251.213 404.125 251.218C403.987 251.205 403.848 251.199 403.71 251.199C398.671 251.199 394.744 259.74 394.704 259.829C394.685 259.869 394.656 259.902 394.62 259.926C394.583 259.949 394.54 259.962 394.496 259.962ZM357.43 189.673C357.392 189.673 357.354 189.663 357.321 189.645C357.287 189.627 357.259 189.601 357.238 189.569C357.218 189.536 357.205 189.5 357.203 189.462C357.2 189.424 357.207 189.386 357.223 189.351C357.342 189.087 360.105 183.078 363.879 183.078C363.988 183.078 364.099 183.083 364.21 183.094C364.707 183.093 365.196 183.211 365.639 183.436C366.081 183.662 366.464 183.989 366.755 184.391C367.105 185.009 367.228 185.728 367.105 186.427C369.11 184.458 375.89 178.205 381.108 178.431C381.64 178.399 382.172 178.511 382.645 178.756C383.119 179.001 383.518 179.369 383.799 179.822C384.93 181.867 383.365 185.595 382.485 187.376C384.04 186.152 387.308 183.779 389.287 183.779C389.333 183.779 389.378 183.779 389.424 183.783C389.655 183.777 389.883 183.834 390.084 183.947C390.286 184.06 390.453 184.225 390.569 184.425C391.263 185.701 389.78 188.38 389.608 188.682C389.578 188.733 389.528 188.771 389.47 188.787C389.413 188.803 389.351 188.796 389.298 188.767C389.246 188.737 389.207 188.688 389.191 188.629C389.175 188.571 389.183 188.509 389.213 188.456C389.644 187.698 390.656 185.535 390.17 184.642C390.09 184.511 389.975 184.404 389.839 184.333C389.703 184.262 389.551 184.229 389.397 184.237C387.018 184.074 381.965 188.385 381.913 188.428C381.872 188.462 381.821 188.48 381.768 188.48C381.715 188.48 381.663 188.462 381.622 188.428C381.582 188.394 381.554 188.347 381.544 188.295C381.535 188.243 381.543 188.189 381.569 188.143C381.601 188.086 384.769 182.513 383.402 180.041C383.155 179.659 382.811 179.35 382.404 179.147C381.997 178.944 381.544 178.853 381.09 178.885C381.011 178.882 380.932 178.881 380.854 178.881C375.002 178.881 366.945 187.233 366.863 187.317C366.827 187.355 366.778 187.379 366.727 187.386C366.675 187.392 366.622 187.381 366.578 187.353C366.533 187.325 366.5 187.283 366.483 187.233C366.466 187.184 366.467 187.13 366.485 187.081C366.63 186.685 366.695 186.264 366.674 185.843C366.654 185.422 366.55 185.009 366.367 184.629C366.111 184.289 365.778 184.014 365.396 183.826C365.014 183.638 364.593 183.542 364.167 183.546C360.537 183.202 357.666 189.475 357.636 189.539C357.618 189.579 357.589 189.612 357.553 189.636C357.516 189.659 357.473 189.673 357.43 189.673ZM47.35 336.074C47.312 336.074 47.2746 336.064 47.2412 336.046C47.2078 336.028 47.1795 336.002 47.1589 335.97C47.1383 335.938 47.126 335.901 47.1232 335.863C47.1204 335.825 47.1271 335.787 47.1427 335.753C47.2655 335.483 50.1636 329.118 54.13 329.496C54.6266 329.496 55.1161 329.614 55.5586 329.839C56.001 330.065 56.3837 330.392 56.6755 330.794C57.0252 331.411 57.1493 332.13 57.0264 332.829C58.9991 330.892 65.5827 324.829 70.7709 324.829C70.8573 324.829 70.9427 324.83 71.0282 324.834C71.5605 324.801 72.0917 324.913 72.5655 325.158C73.0392 325.403 73.4379 325.771 73.7191 326.225C74.85 328.268 73.2855 331.996 72.4055 333.778C73.9973 332.525 77.3655 330.079 79.3436 330.185C79.5749 330.179 79.8034 330.236 80.0053 330.349C80.2071 330.462 80.3748 330.627 80.4909 330.827C81.1836 332.103 79.7 334.783 79.5282 335.085C79.4983 335.137 79.4488 335.175 79.3906 335.191C79.3323 335.207 79.2702 335.199 79.2177 335.17C79.1653 335.14 79.1269 335.09 79.1109 335.032C79.095 334.974 79.1028 334.912 79.1327 334.859C79.5636 334.101 80.5773 331.937 80.0918 331.044C80.0111 330.913 79.8965 330.806 79.7602 330.735C79.6239 330.664 79.4708 330.631 79.3173 330.639C76.9118 330.495 71.8855 334.786 71.8346 334.83C71.7939 334.865 71.7424 334.884 71.689 334.884C71.6356 334.885 71.5838 334.866 71.5426 334.833C71.5014 334.799 71.4734 334.751 71.4636 334.699C71.4539 334.646 71.4629 334.592 71.4891 334.545C71.5218 334.488 74.6891 328.915 73.3218 326.444C73.0756 326.061 72.731 325.752 72.3243 325.549C71.9175 325.346 71.4636 325.256 71.01 325.288C70.9313 325.285 70.8525 325.283 70.7736 325.284C64.9227 325.284 56.8646 333.635 56.7827 333.72C56.7464 333.758 56.6984 333.781 56.6465 333.788C56.5947 333.794 56.5423 333.782 56.4982 333.754C56.454 333.726 56.4208 333.684 56.4041 333.635C56.3874 333.585 56.3882 333.532 56.4064 333.483C56.5511 333.087 56.6152 332.667 56.5949 332.246C56.5746 331.825 56.4703 331.413 56.2882 331.033C56.0317 330.692 55.699 330.417 55.3167 330.229C54.9344 330.041 54.5133 329.945 54.0873 329.949C50.4827 329.596 47.5864 335.876 47.5564 335.94C47.5384 335.98 47.5094 336.013 47.4728 336.037C47.4362 336.061 47.3936 336.074 47.35 336.074Z" fill="white"/>
<path fill-rule="evenodd" clip-rule="evenodd" d="M257.365 136.745C258.29 134.591 262.604 129.965 259.065 127.466C259.065 127.466 260.183 125.826 259.317 124.606C259.317 124.606 259.687 126.306 258.539 127.04C258.539 127.04 258.814 123.89 255.603 124.766C252.391 125.643 249.612 127.108 246.273 126.314C242.934 125.519 242.228 125.482 242.923 127.171C243.538 128.363 244.456 129.373 245.585 130.098C245.585 130.098 242.502 128.751 243.729 130.625C244.32 131.572 245.102 132.384 246.025 133.011C246.949 133.637 247.993 134.063 249.091 134.262C251.565 134.777 256.441 138.901 257.365 136.745Z" fill="#2F3E46"/>
<path fill-rule="evenodd" clip-rule="evenodd" d="M257.209 128.645C256.857 128.667 256.518 128.782 256.225 128.978C255.932 129.173 255.695 129.443 255.54 129.759C255.293 130.673 255.331 131.641 255.649 132.533L254.948 133.015C254.327 132.324 253.871 131.501 253.615 130.608C253.615 130.608 249.098 132.072 247.145 131.755C247.145 131.755 249.501 138.601 251.502 139.144C252.057 139.261 252.635 139.176 253.133 138.905C253.433 140.3 253.212 141.757 252.512 143C257.6 146.691 259.035 140.973 259.035 140.973C258.008 138.665 257.289 136.231 256.898 133.735C257.304 133.53 259.707 132.247 259.073 130.117C258.997 129.686 258.765 129.298 258.421 129.026C258.078 128.755 257.646 128.619 257.209 128.645ZM277.83 145.459C277.83 145.459 281.273 146.114 288.66 142.297C297.385 137.788 298.239 136.819 301.301 133.768C302.658 132.285 304.211 130.994 305.918 129.933C305.918 129.933 307.834 131.693 309.449 130.112C309.449 130.112 311.622 130.169 310.716 131.937C309.81 133.705 309.281 135.215 309.614 136.056C309.817 136.515 309.854 137.03 309.717 137.512C309.58 137.994 309.279 138.414 308.865 138.697C307.842 139.514 306.906 138.565 303.121 142.047C299.336 145.529 288.305 159.02 275.683 158.875L277.83 145.459ZM224.864 167.379C224.864 167.379 219.709 175.04 213.79 185.417C207.871 195.795 205.432 205.126 202.368 208.261C199.305 211.395 195.735 214.945 195.993 215.725C196.251 216.505 200.799 211.888 199.999 213.871C199.199 215.854 195.69 218.042 195.975 219.409C196.259 220.776 200.936 215.509 201.587 216.318C202.239 217.127 197.096 222.336 197.905 223.504C198.713 224.671 203.564 216.924 204.013 217.149C204.462 217.375 200.824 225.39 201.79 225.726C202.755 226.064 205.899 217.148 206.663 217.373C207.426 217.597 207.605 222.224 208.46 222C209.315 221.776 208.132 216.591 209.546 213.89C214.613 205.413 220.196 197.254 226.262 189.461C233.736 179.935 237.68 175.663 237.68 175.663C237.68 175.663 231.045 169.284 224.863 167.379H224.864ZM237.823 237.112L247.308 242.334C247.308 242.334 243.107 246.802 240.684 249.656L233.034 245.534L237.823 237.112Z" fill="#FB7E60"/>
<path fill-rule="evenodd" clip-rule="evenodd" d="M242.384 177.905C242.384 177.905 240.046 188.49 245.868 210.606C247.415 216.482 237.568 237.036 237.568 237.036L247.664 242.519C247.664 242.519 261.264 225.174 262.887 215.979C264.508 206.785 263.855 188.483 263.855 188.483C263.855 188.483 264.923 187.433 270.228 184.598C275.534 181.765 278.195 180.405 279.388 181.34C280.581 182.275 279.022 186.573 279.022 186.573L289.597 187.177C289.597 187.177 292.63 179.077 291.198 171.059C289.768 163.038 275.791 166.291 271.227 167.298C266.665 168.305 267.349 164.127 267.349 164.127C267.349 164.127 263.495 163.689 258.667 167.555C253.84 171.422 246.798 175.472 242.384 177.905Z" fill="#354F52"/>
<path fill-rule="evenodd" clip-rule="evenodd" d="M279.458 186.58L289.225 187.136C289.225 187.136 286.785 192.364 286.312 194.722L277.906 194.361L279.458 186.58Z" fill="#FB7E60"/>
<path fill-rule="evenodd" clip-rule="evenodd" d="M253.131 138.914C253.802 138.592 254.411 138.155 254.931 137.623C254.931 137.623 254.834 139.721 253.287 140.238C253.287 140.238 253.28 139.815 253.247 139.481C253.229 139.288 253.19 139.098 253.131 138.914Z" fill="#2F3E46"/>
<path fill-rule="evenodd" clip-rule="evenodd" d="M224.225 167.245C227.593 162.125 231.243 157.197 235.159 152.483C240.595 146.156 247.465 139.468 251.901 142.646C251.901 142.646 254.844 144.455 256.614 143.806C257.189 143.525 257.7 143.126 258.113 142.636C258.526 142.146 258.832 141.576 259.013 140.961C259.013 140.961 260.971 138.619 266.54 141.343C272.113 144.067 274.95 145.152 277.865 145.288L275.604 159.816C275.604 159.816 269.382 159.145 266.128 157.806L268.261 165.161C268.261 165.161 263.388 165.134 256.706 170.454C252.092 173.989 247.12 177.031 241.873 179.533L242.712 170.875L238.025 176.109C238.025 176.109 230.092 169.035 224.225 167.245Z" fill="#52796F"/>
<path fill-rule="evenodd" clip-rule="evenodd" d="M277.852 194.325L286.319 194.715C285.957 196.719 285.782 198.753 285.797 200.79C285.936 203.872 292.083 202.085 292.986 207.393L275.307 206.993L277.852 194.325ZM233.006 245.529L240.727 249.658C240.727 249.658 237.625 253.768 237.453 255.667C237.234 258.076 240.057 258.078 242.302 262.058L224.462 259.899L233.006 245.529Z" fill="#84A98C"/>
<path fill-rule="evenodd" clip-rule="evenodd" d="M288.514 203.036C286.945 204.062 284.635 203.538 284.081 200.189C283.526 196.842 283.994 192.497 286.952 192.605C286.952 192.605 285.356 197.263 286.141 199.789C286.299 200.461 286.591 201.095 286.998 201.653C287.406 202.211 287.921 202.681 288.514 203.036ZM275.324 206.989L292.969 207.391C292.96 207.272 292.941 207.153 292.913 207.037L275.445 206.285L275.324 206.989ZM239.256 258.545C237.705 259.097 235.788 257.859 235.999 255.045C236.211 252.234 238.214 246.288 242.128 247.991C240.674 249.6 239.446 251.401 238.478 253.342C237.976 254.162 237.779 255.134 237.921 256.085C238.063 257.037 238.536 257.908 239.256 258.545ZM224.437 259.905L242.3 262.074C242.3 262.074 242.191 261.862 242.1 261.698L224.806 259.324L224.437 259.905ZM252.505 142.972L252.672 142.689C253.775 143.237 255.003 143.483 256.232 143.4C257.846 143.131 258.845 140.541 258.845 140.541L259.043 140.948C259.043 140.948 258.367 143.405 256.483 143.903C254.599 144.398 252.505 142.972 252.505 142.972Z" fill="white"/>
<path fill-rule="evenodd" clip-rule="evenodd" d="M266.145 157.819C265.725 156.376 264.594 152.539 264.594 152.539C264.594 152.539 267.725 157.415 269.415 158.785C269.415 158.785 268.505 158.595 267.653 158.339C266.8 158.081 266.144 157.819 266.144 157.819H266.145ZM277.837 145.452C277.837 145.452 277.377 149.105 277.217 152.935C277.058 156.767 277.195 158.828 277.195 158.828C276.716 158.89 276.233 158.912 275.751 158.895L277.837 145.452ZM242.705 170.891C243.265 170.249 243.901 169.346 243.901 169.346L242.574 172.332L242.705 170.891ZM224.27 167.258C224.797 167.818 227.102 168.602 230.676 170.915C233.005 172.474 235.226 174.188 237.325 176.044L237.162 176.238C237.162 176.238 237.755 176.165 238.024 176.099C235.834 174.064 233.465 172.231 230.946 170.622C226.462 167.809 224.27 167.258 224.27 167.258ZM263.865 188.457C263.718 183.137 262.915 175.42 262.915 175.42C262.915 175.42 264.2 180.88 265.957 183.211C266.371 183.858 266.981 184.355 267.698 184.63C268.415 184.906 269.201 184.944 269.942 184.741L263.865 188.457ZM289.233 187.133L279.455 186.569L279.346 187.143L289.233 187.133ZM247.31 242.321L237.437 237.795L237.805 237.15L247.31 242.321Z" fill="#2F3E46"/>
<path d="M290.477 184.276H290.474L279.769 184.112C279.709 184.111 279.651 184.087 279.609 184.044C279.567 184.001 279.543 183.943 279.544 183.883C279.544 183.822 279.569 183.765 279.611 183.723C279.654 183.68 279.712 183.657 279.773 183.657H279.776L290.481 183.821C290.541 183.821 290.599 183.846 290.641 183.889C290.683 183.932 290.707 183.99 290.706 184.05C290.706 184.11 290.681 184.168 290.639 184.21C290.596 184.252 290.538 184.277 290.477 184.276ZM244.873 238.083C244.836 238.082 244.799 238.073 244.766 238.055L238.65 234.817C238.624 234.803 238.6 234.784 238.581 234.761C238.562 234.738 238.548 234.712 238.539 234.683C238.53 234.655 238.527 234.625 238.53 234.595C238.533 234.565 238.541 234.536 238.555 234.51C238.584 234.457 238.633 234.418 238.69 234.401C238.747 234.383 238.809 234.389 238.863 234.416L244.98 237.655C245.025 237.678 245.061 237.716 245.081 237.763C245.102 237.809 245.107 237.861 245.094 237.911C245.082 237.96 245.053 238.004 245.013 238.035C244.973 238.066 244.924 238.083 244.873 238.083ZM249.458 240.464C249.421 240.463 249.385 240.454 249.352 240.436L246.065 238.694C246.037 238.681 246.012 238.662 245.992 238.639C245.971 238.616 245.955 238.589 245.945 238.56C245.936 238.531 245.932 238.5 245.934 238.469C245.937 238.438 245.945 238.408 245.96 238.381C245.974 238.353 245.994 238.329 246.018 238.31C246.043 238.291 246.07 238.276 246.1 238.268C246.13 238.26 246.161 238.258 246.192 238.262C246.222 238.266 246.252 238.277 246.278 238.293L249.565 240.035C249.609 240.059 249.644 240.097 249.665 240.144C249.685 240.19 249.689 240.241 249.677 240.29C249.665 240.339 249.637 240.383 249.597 240.414C249.558 240.445 249.509 240.463 249.458 240.464ZM243.255 255.051C243.24 255.051 243.225 255.051 243.21 255.049C241.975 254.98 239.774 251.699 239.525 251.325L239.516 251.309L235.965 249.443C235.938 249.429 235.915 249.41 235.896 249.387C235.876 249.364 235.862 249.337 235.853 249.309C235.844 249.28 235.841 249.25 235.844 249.221C235.847 249.191 235.855 249.162 235.869 249.135C235.883 249.109 235.902 249.086 235.925 249.066C235.948 249.047 235.974 249.033 236.003 249.024C236.031 249.015 236.062 249.012 236.091 249.015C236.121 249.017 236.15 249.026 236.176 249.04L239.749 250.917C240.322 250.606 242.913 249.271 244.304 249.785C244.491 249.85 244.661 249.958 244.8 250.1C244.94 250.242 245.045 250.413 245.107 250.602C245.177 250.75 245.202 250.915 245.18 251.077C245.157 251.24 245.088 251.392 244.981 251.515C244.399 252.152 242.53 251.961 241.155 251.714C242.3 252.397 243.76 253.407 243.923 254.2C243.947 254.306 243.947 254.415 243.921 254.521C243.895 254.626 243.846 254.724 243.775 254.806C243.713 254.884 243.634 254.947 243.543 254.989C243.453 255.032 243.354 255.053 243.255 255.052V255.051ZM240.417 251.812C241.335 253.079 242.605 254.56 243.235 254.595C243.272 254.601 243.309 254.596 243.343 254.582C243.376 254.567 243.406 254.544 243.427 254.515C243.453 254.484 243.471 254.448 243.48 254.409C243.489 254.37 243.488 254.329 243.477 254.291C243.346 253.652 241.764 252.573 240.417 251.812ZM240.392 251.097C242.003 251.453 244.174 251.726 244.646 251.208C244.706 251.142 244.775 251.023 244.679 250.754C244.638 250.628 244.569 250.514 244.476 250.42C244.383 250.325 244.27 250.254 244.145 250.211C243.156 249.846 241.3 250.647 240.391 251.098L240.392 251.097ZM238.007 255.034C237.986 255.034 237.964 255.031 237.944 255.025C237.037 254.854 236.121 254.733 235.201 254.664C235.141 254.659 235.085 254.63 235.046 254.584C235.008 254.538 234.989 254.478 234.994 254.418C234.995 254.388 235.002 254.358 235.016 254.331C235.029 254.304 235.048 254.28 235.071 254.261C235.094 254.241 235.121 254.227 235.15 254.218C235.179 254.21 235.209 254.207 235.239 254.211C236.189 254.282 237.135 254.408 238.071 254.587C238.123 254.603 238.169 254.636 238.198 254.682C238.228 254.728 238.24 254.783 238.232 254.838C238.225 254.892 238.198 254.941 238.156 254.977C238.115 255.013 238.062 255.033 238.007 255.033V255.034ZM235.256 256.743C235.199 256.744 235.144 256.723 235.101 256.685C235.058 256.647 235.032 256.595 235.026 256.538C235.02 256.481 235.036 256.424 235.071 256.378C235.105 256.333 235.156 256.302 235.212 256.292C236.154 256.072 237.117 255.954 238.084 255.941C238.142 255.955 238.192 255.991 238.224 256.043C238.255 256.094 238.265 256.155 238.252 256.214C238.246 256.243 238.233 256.271 238.216 256.295C238.199 256.32 238.177 256.34 238.151 256.356C238.126 256.372 238.098 256.382 238.068 256.387C238.038 256.392 238.008 256.39 237.979 256.383C237.077 256.415 236.18 256.533 235.301 256.737C235.286 256.74 235.271 256.742 235.256 256.743ZM236.235 258.493C236.185 258.493 236.136 258.476 236.097 258.446C236.057 258.416 236.029 258.373 236.016 258.325C236.003 258.277 236.006 258.226 236.024 258.18C236.043 258.134 236.076 258.095 236.119 258.07C237.415 257.305 238.208 256.98 238.481 257.111C238.535 257.137 238.577 257.184 238.597 257.241C238.617 257.298 238.613 257.36 238.587 257.415C238.561 257.469 238.514 257.511 238.457 257.531C238.401 257.551 238.338 257.547 238.284 257.521H238.279C237.602 257.759 236.955 258.075 236.35 258.461C236.315 258.482 236.275 258.493 236.235 258.493ZM289.365 199.337C288.227 199.337 286.545 197.011 286.13 196.41L282.247 196.398C282.187 196.398 282.129 196.374 282.087 196.332C282.044 196.289 282.02 196.231 282.02 196.171C282.02 196.111 282.044 196.053 282.087 196.01C282.129 195.968 282.187 195.944 282.247 195.944H282.249L286.106 195.955C286.548 195.596 288.57 194.024 289.788 194.261C289.94 194.289 290.083 194.351 290.207 194.443C290.33 194.535 290.431 194.655 290.501 194.792C290.575 194.909 290.615 195.044 290.616 195.182C290.617 195.32 290.579 195.456 290.507 195.574C290.145 196.148 288.857 196.34 287.782 196.396C288.734 196.747 289.855 197.295 290.154 197.999C290.216 198.142 290.243 198.298 290.231 198.454C290.22 198.609 290.171 198.759 290.088 198.892C290.022 199.022 289.923 199.132 289.8 199.21C289.678 199.288 289.536 199.332 289.391 199.337H289.365ZM286.786 196.546C287.57 197.606 288.725 198.883 289.362 198.883H289.376C289.445 198.88 289.511 198.858 289.568 198.819C289.624 198.78 289.669 198.726 289.695 198.663C289.742 198.592 289.771 198.51 289.778 198.425C289.785 198.34 289.77 198.255 289.735 198.177C289.435 197.471 287.815 196.854 286.786 196.546ZM286.844 195.962H286.89C288.168 195.962 289.824 195.807 290.123 195.332C290.161 195.271 290.192 195.18 290.099 195.005C290.061 194.927 290.005 194.859 289.935 194.807C289.866 194.755 289.785 194.721 289.699 194.706C288.972 194.561 287.662 195.367 286.844 195.962ZM283.151 201.15C283.098 201.15 283.047 201.132 283.007 201.099C282.966 201.065 282.938 201.019 282.928 200.967C282.917 200.916 282.925 200.862 282.95 200.816C282.975 200.769 283.015 200.733 283.064 200.713C284.118 200.251 285.251 199.996 286.401 199.961C286.43 199.965 286.459 199.975 286.484 199.991C286.51 200.006 286.532 200.026 286.55 200.05C286.568 200.074 286.581 200.102 286.588 200.131C286.595 200.159 286.596 200.19 286.592 200.219C286.588 200.249 286.578 200.277 286.563 200.303C286.548 200.329 286.528 200.351 286.504 200.369C286.48 200.387 286.453 200.4 286.424 200.407C286.395 200.414 286.365 200.415 286.335 200.41C285.268 200.465 284.219 200.71 283.238 201.134C283.21 201.145 283.181 201.15 283.151 201.15ZM284.112 203.091C284.066 203.091 284.021 203.077 283.983 203.051C283.945 203.025 283.916 202.987 283.899 202.944C283.883 202.901 283.88 202.854 283.891 202.809C283.902 202.765 283.926 202.724 283.961 202.694C284.162 202.517 285.921 200.985 286.804 200.985L286.836 200.986C286.866 200.988 286.896 200.995 286.923 201.007C286.95 201.02 286.974 201.038 286.994 201.06C287.014 201.082 287.03 201.108 287.04 201.136C287.05 201.164 287.055 201.194 287.054 201.224C287.053 201.254 287.046 201.283 287.033 201.311C287.021 201.338 287.003 201.363 286.981 201.383C286.959 201.403 286.932 201.419 286.904 201.429C286.876 201.439 286.846 201.443 286.815 201.441L286.797 201.44C286.266 201.44 284.966 202.413 284.263 203.035C284.221 203.071 284.167 203.092 284.112 203.092V203.091ZM285.674 204.321C285.637 204.321 285.601 204.312 285.569 204.295C285.516 204.268 285.476 204.22 285.458 204.162C285.439 204.105 285.445 204.042 285.473 203.989C285.572 203.798 286.473 202.107 287.471 201.877C287.5 201.87 287.53 201.869 287.56 201.874C287.589 201.878 287.617 201.889 287.643 201.905C287.668 201.921 287.69 201.941 287.707 201.966C287.724 201.99 287.736 202.018 287.743 202.047C287.75 202.076 287.751 202.107 287.746 202.136C287.741 202.166 287.73 202.194 287.714 202.219C287.698 202.245 287.678 202.267 287.653 202.284C287.629 202.301 287.601 202.313 287.572 202.32C286.899 202.475 286.119 203.729 285.875 204.199C285.856 204.236 285.827 204.267 285.792 204.288C285.756 204.31 285.715 204.321 285.674 204.321ZM244.487 168.775C244.447 168.775 244.408 168.764 244.374 168.744C244.339 168.724 244.311 168.696 244.291 168.661C244.271 168.627 244.26 168.588 244.26 168.548C244.26 168.508 244.27 168.469 244.29 168.435C245.805 165.783 248.279 160.212 248.305 160.155C248.329 160.1 248.374 160.057 248.431 160.036C248.487 160.014 248.549 160.016 248.605 160.04C248.66 160.064 248.703 160.11 248.724 160.166C248.746 160.222 248.744 160.285 248.72 160.34C248.695 160.396 246.211 165.988 244.684 168.66C244.664 168.695 244.635 168.724 244.601 168.744C244.566 168.764 244.527 168.775 244.487 168.775ZM251.675 137.639C251.614 137.641 251.556 137.62 251.511 137.579C251.467 137.538 251.441 137.481 251.438 137.421C251.436 137.361 251.457 137.302 251.498 137.258C251.539 137.213 251.596 137.187 251.656 137.185C251.687 137.182 252.274 137.106 252.582 136.085C252.59 136.056 252.604 136.029 252.623 136.006C252.641 135.982 252.665 135.963 252.691 135.949C252.718 135.935 252.746 135.926 252.776 135.924C252.806 135.921 252.836 135.924 252.865 135.934C252.922 135.951 252.97 135.991 252.999 136.044C253.027 136.097 253.034 136.159 253.016 136.216C252.611 137.562 251.726 137.636 251.689 137.638L251.675 137.639ZM256.882 132.336C256.842 132.336 256.802 132.326 256.767 132.305C256.732 132.285 256.703 132.256 256.684 132.221C256.525 131.936 256.426 131.622 256.392 131.297C256.359 130.973 256.393 130.645 256.491 130.334C256.628 130.054 256.829 129.811 257.078 129.623C257.327 129.436 257.616 129.31 257.923 129.255C257.981 129.241 258.042 129.25 258.093 129.28C258.144 129.31 258.182 129.36 258.197 129.417C258.213 129.475 258.205 129.536 258.175 129.588C258.146 129.64 258.097 129.678 258.04 129.695C257.801 129.734 257.575 129.828 257.379 129.969C257.183 130.111 257.022 130.296 256.91 130.51C256.767 131.009 256.827 131.545 257.079 131.999C257.098 132.034 257.108 132.073 257.108 132.112C257.108 132.152 257.097 132.191 257.077 132.225C257.057 132.259 257.028 132.287 256.994 132.307C256.959 132.327 256.921 132.337 256.881 132.337L256.882 132.336Z" fill="#2F3E46"/>
<path d="M258.164 131.409C258.128 131.409 258.092 131.401 258.06 131.384C258.028 131.368 258 131.344 257.979 131.315C257.679 130.928 257.261 130.651 256.788 130.526C256.729 130.513 256.678 130.477 256.645 130.427C256.613 130.376 256.602 130.314 256.615 130.255C256.628 130.196 256.664 130.145 256.715 130.112C256.766 130.08 256.827 130.069 256.886 130.082C257.47 130.23 257.986 130.571 258.35 131.051C258.374 131.085 258.388 131.125 258.391 131.167C258.394 131.208 258.385 131.25 258.366 131.287C258.347 131.324 258.318 131.355 258.282 131.376C258.246 131.398 258.205 131.409 258.164 131.409Z" fill="#2F3E46"/>
<path fill-rule="evenodd" clip-rule="evenodd" d="M306.774 98.6236C315.832 95.8964 329.176 94.8254 326.741 102.131C324.305 109.436 344.663 102.131 344.663 102.131C344.663 102.131 331.904 115.475 322.358 114.987C312.813 114.5 322.943 107.098 306.774 112.553V98.6236Z" fill="#2F3E46"/>
<path d="M306.774 130.516C306.713 130.516 306.656 130.492 306.613 130.45C306.57 130.407 306.546 130.349 306.546 130.289V95.9936C306.546 95.9334 306.57 95.8755 306.613 95.8329C306.656 95.7903 306.713 95.7664 306.774 95.7664C306.834 95.7664 306.892 95.7903 306.934 95.8329C306.977 95.8755 307.001 95.9334 307.001 95.9936V130.289C307.001 130.349 306.977 130.407 306.934 130.45C306.892 130.492 306.834 130.516 306.774 130.516ZM306.774 197.965C306.713 197.965 306.656 197.941 306.613 197.899C306.57 197.856 306.546 197.798 306.546 197.738V139.473C306.546 139.412 306.57 139.355 306.613 139.312C306.656 139.269 306.713 139.245 306.774 139.245C306.834 139.245 306.892 139.269 306.934 139.312C306.977 139.355 307.001 139.412 307.001 139.473V197.739C307.001 197.799 306.977 197.857 306.934 197.9C306.892 197.942 306.834 197.966 306.774 197.966V197.965Z" fill="#2F3E46"/>
<path d="M303.272 113.605C302.958 113.629 302.646 113.543 302.387 113.364C302.251 113.235 302.158 113.067 302.118 112.884C302.079 112.701 302.096 112.51 302.167 112.336C302.215 112.11 302.317 111.899 302.464 111.721C302.612 111.543 302.8 111.404 303.013 111.315C304.384 110.747 306.787 112.139 306.888 112.199C306.924 112.22 306.954 112.251 306.974 112.287C306.994 112.324 307.003 112.366 307.001 112.407C306.999 112.449 306.985 112.489 306.962 112.524C306.938 112.558 306.905 112.586 306.867 112.603C305.732 113.133 304.517 113.472 303.272 113.605ZM303.79 111.629C303.584 111.625 303.379 111.66 303.187 111.735C303.039 111.797 302.909 111.896 302.808 112.021C302.706 112.146 302.638 112.295 302.607 112.453C302.5 112.862 302.635 112.978 302.681 113.016C303.163 113.427 304.972 112.893 306.247 112.373C305.488 111.959 304.651 111.706 303.79 111.629Z" fill="#2F3E46"/>
<path d="M251.887 133.604C251.887 133.661 251.87 133.718 251.838 133.766C251.806 133.814 251.761 133.851 251.707 133.873C251.654 133.895 251.595 133.901 251.539 133.89C251.482 133.879 251.43 133.851 251.389 133.81C251.349 133.77 251.321 133.718 251.309 133.661C251.298 133.605 251.304 133.546 251.326 133.493C251.348 133.439 251.385 133.394 251.433 133.361C251.481 133.329 251.537 133.312 251.595 133.312C251.633 133.312 251.671 133.319 251.706 133.334C251.742 133.348 251.774 133.37 251.801 133.397C251.829 133.424 251.85 133.456 251.865 133.492C251.88 133.527 251.887 133.565 251.887 133.604ZM248.953 134.529C248.953 134.587 248.936 134.643 248.904 134.691C248.872 134.739 248.826 134.777 248.773 134.799C248.719 134.821 248.661 134.827 248.604 134.815C248.547 134.804 248.495 134.776 248.455 134.735C248.414 134.695 248.386 134.643 248.375 134.586C248.363 134.529 248.369 134.471 248.391 134.417C248.413 134.364 248.451 134.319 248.499 134.286C248.547 134.254 248.603 134.237 248.661 134.237C248.738 134.237 248.813 134.268 248.867 134.323C248.922 134.377 248.953 134.452 248.953 134.529Z" fill="#2F3E46"/>
<path d="M243.901 237.339C243.853 237.339 243.807 237.324 243.768 237.296C243.719 237.261 243.687 237.207 243.677 237.148C243.667 237.088 243.681 237.027 243.716 236.978C259.467 215.119 253.628 187.684 250.822 174.498C250.815 174.469 250.815 174.439 250.82 174.409C250.826 174.38 250.837 174.352 250.853 174.327C250.87 174.302 250.891 174.28 250.915 174.264C250.94 174.247 250.968 174.235 250.997 174.229C251.026 174.222 251.057 174.221 251.086 174.227C251.116 174.232 251.144 174.243 251.169 174.259C251.194 174.275 251.216 174.297 251.232 174.321C251.249 174.346 251.261 174.374 251.266 174.404C254.086 187.654 259.954 215.222 244.085 237.245C244.064 237.274 244.037 237.298 244.005 237.314C243.972 237.33 243.937 237.339 243.901 237.339Z" fill="#2F3E46"/>
<path d="M303.475 99.6109C303.124 99.6357 302.774 99.5499 302.475 99.3655C302.36 99.2777 302.271 99.1609 302.216 99.0271C302.162 98.8934 302.144 98.7475 302.165 98.6045C302.173 98.4518 302.219 98.3034 302.297 98.1723C302.376 98.0411 302.486 97.9311 302.616 97.8518C303.72 97.1773 306.542 98.2845 306.859 98.4136C306.901 98.4308 306.937 98.4603 306.963 98.4983C306.988 98.5363 307.001 98.581 307.001 98.6265C307 98.6721 306.986 98.7165 306.96 98.7539C306.934 98.7913 306.897 98.8201 306.855 98.8364C305.772 99.2595 304.633 99.5205 303.475 99.6109ZM303.587 98.0864C303.334 98.0717 303.081 98.1247 302.855 98.24C302.784 98.2818 302.725 98.3407 302.684 98.4113C302.642 98.4818 302.619 98.5618 302.617 98.6436C302.603 98.71 302.608 98.779 302.631 98.8427C302.654 98.9064 302.695 98.9622 302.749 99.0036C303.245 99.3791 304.879 99.0173 306.104 98.6191C305.295 98.3207 304.447 98.1413 303.587 98.0864Z" fill="#2F3E46"/>
<path fill-rule="evenodd" clip-rule="evenodd" d="M129.792 249.037L134.255 260.274C134.255 260.274 137.16 257.415 143.675 250.513C150.189 243.61 156.241 233.755 159.471 229.407C162.703 225.059 170.54 220.819 169.211 220.603C167.882 220.386 163.421 223.834 164.169 222.59C164.916 221.347 171.348 215.375 169.377 215.99C167.405 216.605 162.901 221.994 163.225 220.721C163.549 219.448 168.855 212.239 167.611 212.699C166.367 213.16 161.438 220.195 161.622 218.355C161.805 216.512 164.658 211.673 163.678 211.709C162.697 211.744 160.608 219.392 158.709 219.479C157.631 219.529 157.409 213.808 156.653 214.621C155.896 215.434 155.635 222.19 152.305 226.887C148.328 232.143 143.828 236.981 138.874 241.328C134.632 245.048 129.792 249.037 129.792 249.037ZM146.07 305.503L155.245 302.539L154.702 311.365L146.604 314.313L146.07 305.503ZM93.6964 360.895L101.966 368.841L94.2991 375.059L87.3718 368.368L93.6964 360.895Z" fill="#FB7E60"/>
<path fill-rule="evenodd" clip-rule="evenodd" d="M114.249 245.981C118.095 246.667 118.781 251.065 117.878 253.762C117.878 253.762 118.018 250.023 116.76 249.08C117.466 251.071 117.383 253.257 116.529 255.189C115.674 257.121 114.113 258.653 112.165 259.471C104.977 262.965 98.85 279.184 98.85 279.184C98.85 279.184 92.15 274.37 92.35 268.411C92.5482 262.452 98.5827 259.064 98.5827 259.064C98.5827 259.064 94.0536 259.647 91.4009 267.246C91.7266 264.575 92.9577 262.095 94.8891 260.221C96.8873 258.205 99.2497 256.587 101.851 255.451C101.851 255.451 102.695 249.139 106.79 246.781C110.886 244.422 111.666 245.519 114.249 245.981Z" fill="#2F3E46"/>
<path fill-rule="evenodd" clip-rule="evenodd" d="M100.777 305.896C102.108 313.624 102.906 321.434 103.165 329.271C103.61 341.519 103.768 344.471 100.333 349.912C96.8964 355.353 93.0782 360.458 93.0782 360.458L102.255 369.164C102.255 369.164 112.764 362.073 120.098 346.402C127.433 330.733 125.603 317.184 128.504 312.611C131.405 308.039 142.53 296.378 143.959 296.378C145.388 296.378 145.836 305.622 145.836 305.622L156.121 302.25C156.121 302.25 158.996 285.228 154.374 279.612C149.75 273.995 143.019 278.935 136.774 282.688C130.528 286.442 125.612 289.215 122.783 291.257C119.954 293.3 100.385 303.685 100.777 305.896Z" fill="white"/>
<path fill-rule="evenodd" clip-rule="evenodd" d="M114.314 247.771C115.13 250.647 115.273 254.553 113.255 255.85C110.01 257.937 113.14 260.92 113.14 260.92C113.14 260.92 109.105 264.248 105.601 263.22L107.785 256.215C107.785 256.215 105.223 255.984 105.786 253.891C106.35 251.807 108.638 253.046 108.638 253.046C109.935 252.615 111.103 251.864 112.032 250.861C112.899 249.914 113.664 248.878 114.314 247.77V247.771Z" fill="#FB7E60"/>
<path fill-rule="evenodd" clip-rule="evenodd" d="M129.74 248.578L134.968 261.978C132.047 264.908 129.275 267.983 126.662 271.191C122.895 275.905 124.558 281.585 126.334 284.167C128.108 286.749 129.275 287.153 129.275 287.153C125.698 289.41 122.303 291.944 119.121 294.731C112.721 300.131 107.085 304.81 99.0836 306.289C99.4319 301.585 99.3702 296.86 98.8991 292.167C98.1264 284.017 98.2536 266.258 105.457 263.267C112.663 260.276 111.689 261.604 116.865 258.516C121.472 255.635 125.785 252.306 129.74 248.578Z" fill="#84A98C"/>
<path fill-rule="evenodd" clip-rule="evenodd" d="M146.522 314.297L154.703 311.366C154.703 311.366 154.421 316.928 156.393 320.128C158.247 323.139 164.798 320.05 168.191 324.572L147.655 330.446L146.522 314.297ZM87.3473 368.379L94.3255 375.068C94.3255 375.068 88.7555 379.865 88.1909 382.488C87.6273 385.111 91.24 387.678 89.6564 392.619L76.0645 379.877L87.3473 368.379Z" fill="#354F52"/>
<path fill-rule="evenodd" clip-rule="evenodd" d="M113.037 256.004C112.292 256.494 111.467 256.852 110.6 257.062C110.6 257.062 111.644 257.88 112.244 257.727C112.844 257.575 114.18 255.224 113.037 256.004ZM129.903 248.958C130.588 250.255 135.095 259.409 135.095 259.409L134.268 260.241C134.268 260.241 129.216 247.661 129.903 248.958Z" fill="#2F3E46"/>
<path fill-rule="evenodd" clip-rule="evenodd" d="M105.538 263.238L105.777 262.642C105.777 262.642 107.353 262.064 109.294 261.449C111.234 260.833 112.65 260.334 112.65 260.334L112.845 260.604C112.845 260.604 110.778 261.358 108.948 261.955C107.118 262.548 105.538 263.238 105.538 263.238Z" fill="white"/>
<path fill-rule="evenodd" clip-rule="evenodd" d="M127.285 316.063C127.915 310.975 124.886 302.106 124.886 302.106L131.89 308.285C130.611 309.676 129.46 311.179 128.451 312.776C127.958 313.832 127.568 314.933 127.285 316.063ZM155.245 302.543L146.108 306.072L146.07 305.551L155.245 302.543ZM101.936 368.864L93.0746 361.644L93.6173 360.975L101.936 368.864Z" fill="#2F3E46"/>
<path fill-rule="evenodd" clip-rule="evenodd" d="M128.847 267.18C131.661 267.202 135.335 266.84 135.335 266.84L130.644 280.298L124.713 281.835C124.713 281.835 122.485 276.772 124.531 273.527C126.576 270.283 126.034 267.159 128.847 267.18Z" fill="#84A98C"/>
<path fill-rule="evenodd" clip-rule="evenodd" d="M135.197 267.227L141.147 267.363C141.147 267.363 149.39 264.547 154.231 261.417C159.072 258.285 162.549 255.648 164.795 254.833C167.04 254.017 169.815 252.709 170.042 253.396C170.228 254.341 170.51 255.265 170.882 256.153C171.209 256.509 170.342 259.068 170.298 259.583C170.255 260.097 168.336 261.148 167.505 261.182C166.671 261.215 166.206 260.029 164.614 261.64C163.021 263.25 155.363 270.326 151.316 273.099C147.271 275.872 144.419 277.533 141.931 278.025C139.445 278.515 131.084 279.035 131.084 279.035L135.197 267.227Z" fill="#FB7E60"/>
<path fill-rule="evenodd" clip-rule="evenodd" d="M135.2 267.207L132.109 278.971L131.075 279.035L135.2 267.207ZM125.105 281.741C124.214 279.23 122.086 274.795 125.893 270.959C125.27 272.943 125.393 275.085 126.237 276.985C127.671 279.976 129.217 280.687 129.217 280.687L125.105 281.741Z" fill="#2F3E46"/>
<path fill-rule="evenodd" clip-rule="evenodd" d="M162.232 321.834C161.52 323.161 158.295 324.018 154.888 321.673C151.482 319.329 151.234 312.793 152.205 310.212C153.175 307.632 154.914 308.182 154.914 308.182C154.914 308.182 154.35 315.718 155.75 318.587C157.15 321.456 162.232 321.834 162.232 321.834ZM168.191 324.571C168.11 324.458 168.023 324.35 167.929 324.247L147.606 329.777L147.643 330.451L168.191 324.571ZM76.0818 379.871L76.8018 379.159L89.7627 392.262C89.7357 392.383 89.7002 392.502 89.6564 392.618L76.0818 379.871ZM89.2845 386.598C87.2336 386.249 86.0755 383.627 86.9827 380.741C87.8873 377.855 92.5309 371.093 95.9255 373.772C95.9255 373.772 89.7564 378.6 88.7536 381.385C88.2643 383.128 88.454 384.99 89.2845 386.598Z" fill="white"/>
<path d="M125.261 272.615C125.222 272.616 125.184 272.606 125.15 272.587C125.116 272.568 125.087 272.54 125.067 272.507C125.046 272.474 125.035 272.436 125.033 272.397C125.032 272.358 125.04 272.319 125.058 272.285C126.11 270.235 129.522 267.401 129.666 267.282C129.713 267.247 129.771 267.232 129.829 267.239C129.887 267.246 129.94 267.275 129.977 267.319C130.014 267.364 130.033 267.422 130.029 267.48C130.025 267.538 129.998 267.592 129.955 267.632C129.921 267.661 126.471 270.525 125.464 272.493C125.444 272.53 125.415 272.561 125.379 272.582C125.344 272.604 125.303 272.616 125.261 272.615ZM145.65 302.796C145.594 302.798 145.539 302.778 145.497 302.742C145.454 302.705 145.427 302.654 145.42 302.598C145.412 302.543 145.426 302.486 145.458 302.44C145.49 302.394 145.537 302.361 145.592 302.348L153.226 300.345C153.285 300.331 153.346 300.34 153.398 300.371C153.45 300.402 153.488 300.451 153.504 300.509C153.519 300.567 153.51 300.629 153.48 300.681C153.449 300.733 153.4 300.771 153.342 300.786L145.707 302.789C145.689 302.794 145.669 302.796 145.65 302.796ZM154.382 300.509C154.326 300.509 154.272 300.489 154.23 300.451C154.188 300.414 154.162 300.363 154.155 300.307C154.149 300.251 154.164 300.195 154.196 300.15C154.229 300.104 154.277 300.072 154.332 300.06L156.354 299.598C156.413 299.586 156.474 299.597 156.525 299.629C156.576 299.661 156.612 299.712 156.626 299.77C156.64 299.829 156.629 299.891 156.597 299.942C156.565 299.993 156.514 300.029 156.455 300.043L154.433 300.504C154.416 300.507 154.399 300.509 154.382 300.509ZM104.854 367.379C104.796 367.379 104.741 367.358 104.699 367.318L94.7718 358.169C94.7485 358.149 94.7295 358.125 94.7159 358.097C94.7022 358.07 94.6943 358.04 94.6925 358.01C94.6906 357.979 94.695 357.949 94.7053 357.92C94.7156 357.891 94.7316 357.864 94.7524 357.842C94.7731 357.819 94.7982 357.801 94.8261 357.789C94.8541 357.776 94.8842 357.77 94.9148 357.769C94.9454 357.768 94.9758 357.774 95.0042 357.785C95.0326 357.797 95.0584 357.814 95.08 357.835L105.007 366.985C105.041 367.016 105.065 367.056 105.075 367.101C105.085 367.145 105.082 367.192 105.065 367.235C105.048 367.277 105.019 367.314 104.981 367.34C104.943 367.366 104.899 367.379 104.854 367.379ZM92.9482 380.629C92.8065 380.636 92.6653 380.607 92.538 380.545C92.4107 380.482 92.3016 380.388 92.2209 380.271C91.6027 379.371 92.5536 376.925 92.8591 376.195L90.0427 373.902C89.996 373.864 89.9662 373.809 89.9601 373.749C89.954 373.689 89.9719 373.629 90.01 373.582C90.0481 373.535 90.1032 373.505 90.1632 373.499C90.2232 373.493 90.2832 373.511 90.33 373.549L93.2046 375.89C93.2151 375.893 93.2254 375.897 93.2355 375.902C93.2654 375.915 93.2921 375.935 93.3136 375.959C93.9773 375.966 96.8064 376.059 97.5 377.105C97.5863 377.255 97.6364 377.423 97.6463 377.596C97.6562 377.769 97.6257 377.942 97.5572 378.102C97.4886 378.261 97.3839 378.402 97.2514 378.514C97.1189 378.625 96.9622 378.705 96.7936 378.745C95.8846 378.913 94.5673 377.866 93.7482 377.109C94.0455 378.049 94.3491 379.422 93.8936 380.144C93.7985 380.292 93.6675 380.414 93.5128 380.499C93.3581 380.584 93.1846 380.628 93.0082 380.628L92.9482 380.629ZM93.1355 376.725C92.6809 377.896 92.2418 379.497 92.5955 380.015C92.6388 380.076 92.6986 380.123 92.7679 380.151C92.8371 380.179 92.9129 380.187 92.9864 380.174C93.0897 380.178 93.1924 380.155 93.2841 380.107C93.3758 380.059 93.4533 379.988 93.5091 379.901C93.92 379.251 93.4673 377.64 93.1355 376.725ZM93.69 376.425C94.48 377.202 95.9382 378.437 96.7146 378.297C96.8138 378.278 96.906 378.232 96.9812 378.164C97.0564 378.096 97.1119 378.009 97.1418 377.913C97.1885 377.827 97.2112 377.73 97.2076 377.632C97.2039 377.534 97.174 377.439 97.1209 377.356C96.68 376.691 94.7955 376.473 93.69 376.425ZM88.9164 381.302C88.8649 381.302 88.8149 381.285 88.7746 381.253C87.9787 380.746 87.1136 380.357 86.2064 380.098C86.1503 380.08 86.1036 380.041 86.076 379.988C86.0484 379.936 86.0421 379.876 86.0585 379.819C86.0749 379.762 86.1127 379.714 86.1639 379.685C86.215 379.656 86.2756 379.647 86.3327 379.662C87.2976 379.935 88.216 380.351 89.0573 380.896C89.0943 380.926 89.1212 380.966 89.1344 381.011C89.1476 381.056 89.1464 381.105 89.1309 381.149C89.1154 381.194 89.0864 381.232 89.048 381.26C89.0095 381.287 88.9635 381.302 88.9164 381.302ZM88.5027 382.873C88.4806 382.873 88.4585 382.87 88.4373 382.864C87.5688 382.692 86.6804 382.642 85.7982 382.716C85.7679 382.72 85.7372 382.717 85.7078 382.709C85.6785 382.7 85.6513 382.686 85.6276 382.667C85.604 382.647 85.5845 382.623 85.5703 382.596C85.5561 382.569 85.5475 382.54 85.545 382.509C85.5425 382.479 85.5462 382.448 85.5557 382.419C85.5653 382.39 85.5807 382.364 85.6008 382.341C85.621 382.318 85.6455 382.299 85.673 382.286C85.7005 382.273 85.7304 382.265 85.7609 382.264C86.6994 382.182 87.6448 382.237 88.5673 382.428C88.6199 382.444 88.6652 382.477 88.6948 382.523C88.7244 382.57 88.7364 382.625 88.7286 382.679C88.7207 382.733 88.6935 382.783 88.652 382.819C88.6105 382.854 88.5575 382.874 88.5027 382.874V382.873ZM86.0491 385.149C85.9968 385.149 85.9459 385.132 85.9052 385.099C85.8644 385.066 85.8361 385.02 85.8252 384.969C85.8143 384.918 85.8214 384.865 85.8453 384.818C85.8692 384.772 85.9084 384.735 85.9564 384.714C86.7908 384.338 87.6771 384.09 88.5855 383.978C88.6159 383.974 88.6468 383.977 88.676 383.986C88.7053 383.995 88.7322 384.011 88.755 384.031C88.7777 384.052 88.7957 384.077 88.8077 384.105C88.8197 384.133 88.8255 384.164 88.8246 384.195C88.8275 384.255 88.8065 384.314 88.7661 384.358C88.7257 384.403 88.6692 384.43 88.6091 384.433C87.7574 384.543 86.9264 384.778 86.1427 385.129C86.1133 385.142 86.0814 385.149 86.0491 385.149ZM158.075 315.993C156.921 315.993 155.133 313.861 154.707 313.333L150.229 314.974C150.173 314.991 150.113 314.987 150.06 314.961C150.007 314.935 149.967 314.89 149.947 314.835C149.926 314.78 149.928 314.72 149.952 314.666C149.975 314.612 150.019 314.57 150.073 314.547L154.659 312.865C154.925 312.235 156.179 309.441 157.562 309.209C157.775 309.178 157.993 309.205 158.193 309.287C158.392 309.37 158.566 309.505 158.695 309.678C158.812 309.801 158.896 309.952 158.939 310.116C158.982 310.281 158.982 310.454 158.94 310.618C158.68 311.607 156.89 312.495 155.791 312.955C156.787 313.127 158.328 313.518 158.819 314.329C158.918 314.49 158.974 314.673 158.985 314.861C158.995 315.049 158.958 315.237 158.877 315.407C158.828 315.557 158.737 315.691 158.617 315.793C158.496 315.895 158.349 315.962 158.193 315.985C158.154 315.991 158.115 315.993 158.075 315.993ZM155.301 313.336C156.165 314.356 157.492 315.609 158.131 315.535C158.222 315.523 158.355 315.477 158.458 315.231C158.51 315.126 158.534 315.011 158.529 314.894C158.525 314.778 158.491 314.664 158.431 314.565C157.996 313.846 156.296 313.473 155.301 313.336ZM157.746 309.649C157.71 309.649 157.673 309.652 157.637 309.658C156.742 309.808 155.732 311.615 155.235 312.689C156.346 312.253 158.281 311.337 158.501 310.503C158.525 310.41 158.524 310.312 158.498 310.22C158.472 310.128 158.421 310.044 158.352 309.978C158.281 309.882 158.191 309.803 158.086 309.746C157.981 309.689 157.865 309.656 157.746 309.649ZM153.609 322.384C153.565 322.384 153.521 322.371 153.484 322.346C153.447 322.322 153.418 322.287 153.401 322.247C153.383 322.206 153.378 322.161 153.386 322.117C153.393 322.074 153.413 322.033 153.444 322.001C154.335 321.034 155.301 320.139 156.333 319.324C156.383 319.29 156.444 319.277 156.503 319.288C156.562 319.299 156.615 319.333 156.649 319.383C156.683 319.433 156.696 319.494 156.685 319.553C156.674 319.612 156.64 319.665 156.59 319.699C155.587 320.497 154.646 321.371 153.775 322.312C153.754 322.334 153.729 322.352 153.7 322.365C153.672 322.377 153.64 322.384 153.609 322.384ZM156.201 324.164C156.172 324.164 156.144 324.158 156.117 324.148C156.061 324.126 156.017 324.082 155.993 324.027C155.969 323.972 155.968 323.91 155.99 323.854C156.45 322.68 156.991 321.54 157.61 320.442C157.642 320.39 157.693 320.354 157.751 320.34C157.81 320.326 157.872 320.336 157.923 320.368C157.975 320.399 158.011 320.45 158.025 320.509C158.039 320.568 158.029 320.63 157.997 320.681C157.394 321.757 156.864 322.872 156.413 324.02C156.396 324.063 156.367 324.099 156.329 324.125C156.291 324.151 156.247 324.165 156.201 324.165V324.164ZM158.504 324.494C158.482 324.494 158.461 324.491 158.44 324.485C158.411 324.476 158.384 324.462 158.361 324.444C158.338 324.425 158.318 324.402 158.304 324.375C158.29 324.349 158.281 324.32 158.278 324.29C158.275 324.261 158.278 324.23 158.286 324.202C158.292 324.182 158.859 322.294 159.32 321.155C159.344 321.102 159.388 321.059 159.443 321.037C159.497 321.015 159.558 321.015 159.613 321.037C159.668 321.06 159.712 321.102 159.735 321.156C159.759 321.21 159.761 321.271 159.741 321.326C159.289 322.445 158.728 324.313 158.722 324.332C158.708 324.379 158.679 324.42 158.64 324.449C158.6 324.478 158.553 324.494 158.504 324.494ZM108.129 255.6C108.07 255.6 108.013 255.577 107.971 255.536C107.928 255.495 107.904 255.439 107.902 255.38C107.853 253.698 106.713 253.569 106.702 253.568C106.642 253.562 106.587 253.533 106.548 253.487C106.51 253.441 106.491 253.381 106.496 253.321C106.498 253.291 106.506 253.261 106.52 253.234C106.534 253.208 106.553 253.184 106.576 253.164C106.599 253.145 106.626 253.131 106.655 253.122C106.684 253.114 106.715 253.112 106.745 253.115C106.761 253.117 108.295 253.288 108.356 255.366C108.357 255.396 108.352 255.426 108.342 255.454C108.331 255.482 108.315 255.507 108.295 255.529C108.275 255.551 108.25 255.569 108.223 255.581C108.196 255.593 108.166 255.6 108.136 255.601L108.129 255.6Z" fill="#2F3E46"/>
<path d="M106.616 255.259C106.572 255.259 106.528 255.246 106.491 255.221C106.453 255.197 106.424 255.162 106.407 255.121C106.389 255.08 106.384 255.034 106.393 254.99C106.401 254.946 106.422 254.906 106.453 254.874C106.821 254.471 107.3 254.187 107.829 254.056C107.859 254.052 107.89 254.055 107.919 254.063C107.948 254.072 107.975 254.086 107.998 254.106C108.021 254.125 108.039 254.149 108.053 254.177C108.066 254.204 108.073 254.233 108.075 254.264C108.08 254.324 108.061 254.383 108.022 254.429C107.983 254.475 107.928 254.504 107.868 254.509C107.45 254.631 107.073 254.866 106.78 255.189C106.759 255.211 106.734 255.229 106.705 255.241C106.677 255.253 106.647 255.259 106.616 255.259Z" fill="#2F3E46"/>
<path d="M166.709 319.738C166.649 319.738 166.591 319.714 166.548 319.672C166.506 319.629 166.482 319.571 166.482 319.511V261.405C166.482 261.344 166.506 261.286 166.548 261.244C166.591 261.201 166.649 261.177 166.709 261.177C166.769 261.177 166.827 261.201 166.87 261.244C166.912 261.286 166.936 261.344 166.936 261.405V319.511C166.936 319.571 166.912 319.629 166.87 319.672C166.827 319.714 166.769 319.738 166.709 319.738ZM166.709 254.325C166.649 254.325 166.591 254.301 166.548 254.258C166.506 254.215 166.482 254.158 166.482 254.097V248.864C166.482 248.803 166.506 248.746 166.548 248.703C166.591 248.66 166.649 248.636 166.709 248.636C166.769 248.636 166.827 248.66 166.87 248.703C166.912 248.746 166.936 248.803 166.936 248.864V254.097C166.936 254.158 166.912 254.215 166.87 254.258C166.827 254.301 166.769 254.325 166.709 254.325Z" fill="#2F3E46"/>
<path fill-rule="evenodd" clip-rule="evenodd" d="M113.539 251.169C113.539 251.224 113.523 251.279 113.492 251.325C113.461 251.371 113.417 251.407 113.366 251.428C113.315 251.449 113.259 251.455 113.204 251.444C113.15 251.433 113.1 251.406 113.061 251.367C113.022 251.328 112.995 251.278 112.984 251.224C112.974 251.169 112.979 251.113 113 251.062C113.022 251.011 113.057 250.967 113.104 250.936C113.15 250.906 113.204 250.889 113.259 250.889C113.333 250.889 113.405 250.919 113.457 250.971C113.51 251.024 113.539 251.095 113.539 251.169Z" fill="#2F3E46"/>
<path d="M113.089 254.522C112.568 254.487 112.077 254.265 111.707 253.896C111.666 253.853 111.643 253.795 111.644 253.735C111.645 253.675 111.67 253.617 111.713 253.575C111.756 253.534 111.814 253.511 111.874 253.512C111.934 253.513 111.991 253.537 112.034 253.579C112.19 253.735 112.377 253.857 112.582 253.94C112.787 254.022 113.006 254.062 113.227 254.058C113.257 254.053 113.287 254.055 113.316 254.062C113.345 254.069 113.372 254.082 113.396 254.1C113.42 254.118 113.44 254.141 113.455 254.167C113.47 254.193 113.48 254.221 113.484 254.251C113.488 254.28 113.486 254.311 113.479 254.34C113.472 254.369 113.459 254.396 113.441 254.42C113.423 254.444 113.4 254.464 113.375 254.479C113.349 254.494 113.321 254.504 113.291 254.508C113.224 254.518 113.157 254.522 113.089 254.522Z" fill="#2F3E46"/>
<path d="M99.89 362.804C99.8438 362.803 99.7988 362.789 99.7609 362.763C99.723 362.737 99.6941 362.699 99.6779 362.656C99.6617 362.613 99.6591 362.566 99.6703 362.521C99.6816 362.476 99.7062 362.436 99.7409 362.405C116.948 347.438 114.879 321.09 110.114 301.622C110.1 301.563 110.109 301.501 110.141 301.45C110.172 301.398 110.222 301.361 110.281 301.346C110.31 301.339 110.34 301.338 110.37 301.342C110.399 301.347 110.428 301.357 110.453 301.372C110.479 301.388 110.501 301.409 110.519 301.433C110.536 301.457 110.549 301.485 110.555 301.514C115.351 321.105 117.419 347.631 100.039 362.748C99.9977 362.784 99.9448 362.804 99.89 362.804ZM126.46 303.722C126.417 303.722 126.375 303.709 126.339 303.686C126.303 303.663 126.274 303.631 126.255 303.592C126.237 303.553 126.23 303.51 126.235 303.467C126.24 303.424 126.257 303.384 126.285 303.351C126.885 302.616 141.06 285.368 146.061 285.169C146.412 285.16 146.762 285.225 147.087 285.36C147.411 285.494 147.704 285.696 147.946 285.951C151.128 289.078 150.896 300.764 150.885 301.26C150.884 301.319 150.859 301.376 150.817 301.417C150.775 301.459 150.718 301.482 150.658 301.482H150.653C150.623 301.481 150.593 301.475 150.566 301.462C150.539 301.45 150.514 301.433 150.494 301.411C150.473 301.39 150.457 301.364 150.446 301.336C150.435 301.309 150.43 301.279 150.431 301.249C150.434 301.131 150.669 289.265 147.628 286.275C147.432 286.061 147.192 285.893 146.925 285.78C146.657 285.668 146.369 285.615 146.079 285.624C141.28 285.815 126.782 303.46 126.636 303.638C126.615 303.664 126.588 303.685 126.558 303.7C126.527 303.714 126.494 303.722 126.46 303.722Z" fill="#2F3E46"/>
</svg>
