<svg width="150" height="22" viewBox="0 0 150 22" fill="none" xmlns="http://www.w3.org/2000/svg">
<g id="Group 1">
<g id="Group">
<g id="Group_2">
<g id="Group_3">
<path id="Vector" d="M4.85781 6.07611C4.85781 4.37142 5.80156 3.66204 8.05938 3.66204C10.4484 3.66204 11.4719 4.55423 11.4719 6.60111H15.3563C15.3563 2.55892 13.1781 0.827667 8.05938 0.827667C2.94062 0.827667 0.7625 2.58548 0.7625 6.70736C0.7625 13.2683 11.525 10.8011 11.525 15.0011C11.525 16.6808 10.5 17.4167 8.05938 17.4167C5.46094 17.4167 4.38438 16.5495 4.38438 14.4761H0.5C0.5 18.5183 2.75781 20.2511 8.05938 20.2511C13.3625 20.2511 15.6188 18.4917 15.6188 14.3714C15.6188 7.33704 4.85781 9.59486 4.85781 6.07611Z" fill="#3C5050"/>
</g>
</g>
</g>
<g id="Group_4">
<g id="Group_5">
<g id="Group_6">
<path id="Vector_2" d="M18.5065 12.9542C18.5065 18.073 20.8425 20.2511 26.3284 20.2511C31.8143 20.2511 34.1503 18.073 34.1503 12.9542V1.35266H29.8456V12.9542C29.8456 15.7886 28.7956 16.9698 26.3284 16.9698C23.8612 16.9698 22.8378 15.7886 22.8378 12.9542V1.35266H18.5065V12.9542Z" fill="#3C5050"/>
</g>
</g>
</g>
<g id="Group_7">
<g id="Group_8">
<g id="Group_9">
<path id="Vector_3" d="M38.088 19.7261H42.2083V6.62766L46.9067 19.7261H49.5317L54.2567 6.62766V19.7261H58.352V1.35266H52.7083L48.3255 13.873L43.9411 1.35266H38.088V19.7261Z" fill="#3C5050"/>
</g>
</g>
</g>
<g id="Group_10">
<g id="Group_11">
<g id="Group_12">
<path id="Vector_4" d="M62.5516 19.7261H66.6719V6.62766L71.3704 19.7261H73.9954L78.7204 6.62766V19.7261H82.8157V1.35266H77.1719L72.7891 13.873L68.4047 1.35266H62.5516V19.7261Z" fill="#3C5050"/>
</g>
</g>
</g>
<g id="Group_13">
<g id="Group_14">
<g id="Group_15">
<path id="Vector_5" d="M87.0153 1.35266V19.7261H91.3465V1.35266H87.0153Z" fill="#3C5050"/>
</g>
</g>
</g>
<g id="Group_16">
<g id="Group_17">
<g id="Group_18">
<path id="Vector_6" d="M109.352 1.35266H94.2335V4.63391H99.6413V19.7261H103.946V4.63391H109.352V1.35266Z" fill="#3C5050"/>
</g>
</g>
</g>
<path id="Vector_7" d="M119.25 20.7057L130.541 9.55568" stroke="#3C5050" stroke-width="2.33485"/>
<path id="Vector_8" d="M130.108 10.926L140.188 20.7057" stroke="#3C5050" stroke-width="2.4516"/>
<path id="Vector_9" d="M128.85 2.46346L148.578 20.6854" stroke="#3C5050" stroke-width="2.56834"/>
<path id="Vector_10" d="M112.756 20.6931L130.541 2.28224" stroke="#3C5050" stroke-width="2.56834"/>
</g>
</svg>
